PathFileType	4	(X/Y/Z)	s06c0303.trc
DataRate	CameraRate	NumFrames	NumMarkers	Units	OrigDataRate	OrigDataStartFrame	OrigNumFrames
200	200	4	48	mm	200	0	2000
Frame#	Time	racr			lacr			c7			jug			rlel			rdr			llel			ldr			s2			lic			ric			lasi			rasi			rpsi			lpsi			rgt			lgt			rth1			rth2			rth3			rth4			rlfc			rmfc			rsh1			rsh2			rsh3			rsh4			rlmal			rcal			rtoe			rmt5			lth1			lth2			lth4			lth3			llfc			lmfc			llmal			lcal			lmt5			lsh1			lsh2			lsh3			lsh4			ltoe			SBIKE			LBIKE			RBIKE			
		X1	Y1	Z1	X2	Y2	Z2	X3	Y3	Z3	X4	Y4	Z4	X5	Y5	Z5	X6	Y6	Z6	X7	Y7	Z7	X8	Y8	Z8	X9	Y9	Z9	X10	Y10	Z10	X11	Y11	Z11	X12	Y12	Z12	X13	Y13	Z13	X14	Y14	Z14	X15	Y15	Z15	X16	Y16	Z16	X17	Y17	Z17	X18	Y18	Z18	X19	Y19	Z19	X20	Y20	Z20	X21	Y21	Z21	X22	Y22	Z22	X23	Y23	Z23	X24	Y24	Z24	X25	Y25	Z25	X26	Y26	Z26	X27	Y27	Z27	X28	Y28	Z28	X29	Y29	Z29	X30	Y30	Z30	X31	Y31	Z31	X32	Y32	Z32	X33	Y33	Z33	X34	Y34	Z34	X35	Y35	Z35	X36	Y36	Z36	X37	Y37	Z37	X38	Y38	Z38	X39	Y39	Z39	X40	Y40	Z40	X41	Y41	Z41	X42	Y42	Z42	X43	Y43	Z43	X44	Y44	Z44	X45	Y45	Z45	X46	Y46	Z46	X47	Y47	Z47	X48	Y48	Z48	
0	0.0000	452.775007	1324.179146	-61.734816	480.035170	1331.679162	-390.563476	455.644158	1419.794012	-223.891349	476.353492	1263.008457	-218.010319	523.223217	1078.810002	14.078711	719.198656	917.839909	-51.136914	513.192470	1063.806915	-450.058556	715.410516	914.514734	-395.612572	-34.599163	1137.479676	-234.306574	152.820080	1078.082383	-388.156740	118.012381	1099.450992	-54.547427	157.927113	1009.364878	-359.902788	137.662494	1040.916606	-87.230366	-0.816427	1171.599884	-199.585600	3.304852	1167.649311	-261.113501	71.830260	1047.094619	-21.131736	96.941530	1005.005466	-416.327213	172.957505	972.322475	-15.138529	259.550114	944.218040	-19.485774	317.322646	879.860501	-22.579360	275.506463	973.497745	-38.090121	379.494191	793.656914	-43.045464	376.092195	767.186036	-153.304332	343.712969	677.330763	-15.310686	336.665843	591.575457	-35.405839	290.911406	517.631555	-36.873019	358.192292	588.827723	-68.560142	259.501023	435.796253	-41.549453	196.104284	405.714627	-90.370113	471.609444	391.514180	-100.232100	378.408390	368.935385	-25.993578	132.248275	887.075339	-424.743892	192.317290	825.627896	-412.253133	222.921951	843.618866	-400.439710	213.706648	738.994429	-402.747821	225.742069	629.705060	-374.331926	217.986493	614.700151	-258.930842	-49.120086	373.347601	-375.414584	-128.925954	358.649119	-329.974586	57.245353	291.270163	-399.558057	150.937999	553.225523	-400.246901	102.814558	482.889880	-381.693161	24.388660	440.090767	-384.620656	119.257481	469.748513	-349.010518	142.657708	286.146086	-339.090310	-154.446623	852.848805	-216.888686	-50.329742	79.985816	-411.467514	-50.653257	79.618498	-13.974095	
1	0.0050	452.755297	1324.130926	-61.747646	480.009574	1331.638991	-390.564464	455.637998	1419.783383	-223.866937	476.351895	1262.968016	-218.001346	523.210262	1078.815161	14.069400	719.208129	917.829997	-51.126759	513.207171	1063.778307	-449.999734	715.412429	914.511581	-395.604170	-34.611597	1137.474173	-234.295014	152.780031	1078.108008	-388.132491	118.008889	1099.452772	-54.552744	157.924062	1009.377328	-359.972538	137.620699	1040.893449	-87.214001	-0.838417	1171.595122	-199.598341	3.279322	1167.659889	-261.105242	71.848201	1047.155455	-21.101758	96.903712	1004.995916	-416.330233	172.975400	972.341004	-15.172856	259.545303	944.255308	-19.507333	317.339727	879.875897	-22.577728	275.506603	973.549767	-38.119661	379.508316	793.679748	-43.057431	376.109364	767.215048	-153.333873	343.728569	677.350706	-15.318644	336.671449	591.625641	-35.429804	290.919997	517.676319	-36.883095	358.210957	588.863691	-68.596175	259.503744	435.829565	-41.563521	196.119180	405.767319	-90.387228	471.590353	391.536431	-100.241128	378.414336	368.976072	-26.005497	132.232364	887.066209	-424.766556	192.290386	825.626165	-412.268049	222.905636	843.614633	-400.460928	213.690532	738.982778	-402.753402	225.718422	629.689796	-374.364091	217.965453	614.652486	-258.930530	-49.132184	373.302206	-375.416219	-128.935222	358.603115	-329.966587	57.243742	291.274437	-399.557862	150.926962	553.203289	-400.273994	102.805264	482.876870	-381.703640	24.380645	440.070163	-384.633803	119.232865	469.721289	-349.029724	142.661079	286.123050	-339.096115	-154.368886	852.788863	-215.946515	-50.329700	79.976089	-411.427104	-50.640152	79.648550	-13.999343	
2	0.0100	452.726168	1324.133643	-61.744417	479.948826	1331.627253	-390.579202	455.638298	1419.769296	-223.871973	476.357283	1262.940640	-218.004749	523.195614	1078.806495	14.056885	719.224730	917.844094	-51.139598	513.212077	1063.778869	-449.954119	715.406221	914.511178	-395.595254	-34.630771	1137.467081	-234.283502	152.750775	1078.123886	-388.080933	117.965254	1099.487125	-54.560012	157.880022	1009.358691	-359.930454	137.579961	1040.919781	-87.204999	-0.837244	1171.578372	-199.601119	3.258603	1167.650798	-261.098586	71.855086	1047.225159	-21.101523	96.900676	1005.001819	-416.319379	172.953908	972.344744	-15.171100	259.538500	944.272452	-19.526967	317.351441	879.913257	-22.615072	275.494152	973.570945	-38.138783	379.498785	793.723526	-43.074780	376.104614	767.271053	-153.342829	343.730811	677.390043	-15.340764	336.669290	591.660413	-35.444261	290.935062	517.704597	-36.893821	358.226004	588.892370	-68.603284	259.483881	435.878627	-41.564610	196.114188	405.805316	-90.386894	471.586890	391.552481	-100.244535	378.405485	369.008052	-26.005707	132.203955	887.053359	-424.776275	192.275077	825.618943	-412.263811	222.880565	843.600477	-400.454199	213.663660	738.980739	-402.768681	225.683000	629.678735	-374.365498	217.938607	614.682280	-258.942178	-49.134842	373.272491	-375.424704	-128.943487	358.542625	-329.973307	57.250467	291.243733	-399.542365	150.882669	553.182140	-400.289874	102.788387	482.856000	-381.709563	24.360998	440.028849	-384.639359	119.235716	469.716410	-349.013457	142.672112	286.100985	-339.089867	-154.339992	852.792932	-215.992880	-50.330193	79.971353	-411.434843	-50.662461	79.620951	-13.983907	
3	0.0150	453.469808	1324.129643	-61.412438	479.901015	1331.618143	-390.599732	455.615530	1419.755082	-223.864942	476.346855	1262.907362	-218.012459	523.181332	1078.799662	14.031818	719.228775	917.844732	-51.130395	513.177579	1063.952111	-450.470453	715.413240	914.505991	-395.607866	-35.326662	1137.779952	-233.308595	152.698210	1078.156536	-388.049671	117.704307	1099.344241	-54.566472	157.828497	1009.383128	-359.902709	137.149878	1040.673583	-87.127176	-1.006411	1171.537183	-199.707594	3.245779	1167.658059	-261.105173	71.944350	1047.280911	-20.776048	96.859649	1005.011794	-416.360966	173.428648	972.253148	-15.042713	259.748202	944.600556	-19.219164	317.361308	879.943324	-22.630085	275.573939	973.512323	-38.179586	379.519460	793.764447	-43.103500	375.970699	767.206015	-153.466742	343.636609	677.332302	-15.265002	336.406589	591.683270	-35.498180	290.844359	517.691250	-37.081611	358.390706	588.896573	-68.629462	259.117118	436.394044	-41.168530	196.103055	405.853731	-90.388582	471.585581	391.591167	-100.251941	378.390257	369.044733	-26.012180	132.182620	887.056480	-424.781780	192.247554	825.614544	-412.289568	222.633976	843.478901	-400.168801	213.644132	738.967979	-402.756383	225.652789	629.668938	-374.368754	217.898319	614.638200	-258.949867	-49.143387	373.104213	-375.194227	-128.941892	358.476634	-329.955572	57.244236	291.217311	-399.560757	151.033758	553.083972	-400.342918	102.668549	482.674180	-381.769336	23.936106	441.298561	-386.022150	118.539038	469.063716	-348.173504	142.665987	286.087389	-339.101027	-157.879345	853.239334	-218.860150	-50.324396	79.991167	-411.438760	-50.663680	79.662510	-13.994028	
